<svg width="442" height="427" viewBox="0 0 442 427" fill="none" xmlns="http://www.w3.org/2000/svg">
<path d="M3.6568 29.229L0.117141 191.474L3.6568 385.633C3.6568 385.633 -0.767713 413.154 0.117141 416.001C1.00199 418.848 13.6854 426.123 13.6854 426.123C13.6854 426.123 395.732 425.807 401.631 426.123C407.531 426.44 432.897 426.123 432.897 426.123C432.897 426.123 437.912 414.419 437.912 413.154C437.912 411.889 440.861 381.858 439.977 375.205C439.092 368.552 443.552 26.0659 440.142 22.27C436.732 18.4741 408.711 6.77019 408.711 6.77019C408.711 6.77019 56.75 -1.61829 39.6421 0.279655C22.5344 2.1776 7.99512 11.5976 7.11027 11.5976C6.22541 11.5976 3.6568 29.229 3.6568 29.229Z" fill="#82410F"/>
<path opacity="0.25" d="M13.3862 23.0536C13.5175 22.9365 16.8824 24.6644 17.7477 25.2162C18.6133 25.7681 418.524 23.7185 418.524 23.7185C418.524 23.7185 434.501 26.076 440.733 23.9531C440.55 23.1652 440.321 22.5872 440.037 22.2701C436.627 18.4743 408.605 6.7703 408.605 6.7703C408.605 6.7703 56.6442 -1.61842 39.5365 0.279525C22.4286 2.17747 7.88954 11.5975 7.00469 11.5975C7.00469 11.5975 13.2546 23.1708 13.3862 23.0536Z" fill="white"/>
<path d="M13.2 23.4183C12.7383 24.3381 11.4762 34.9305 11.6657 36.917C11.8976 39.3506 10.4409 192.066 10.4409 193.372C10.4409 195.145 11.2218 381.002 10.6609 384.878C10.4715 386.188 10.1116 388.506 9.79707 390.746C9.01379 396.327 11.001 410.521 11.7685 412.047C12.5303 413.561 20.9815 417.298 24.0902 417.286C30.7669 417.26 350.488 416.939 367.275 417.039C377.799 417.106 389.71 417.143 395.28 417.251C403.46 417.409 421.099 417.288 421.099 417.288C421.099 417.288 424.352 412.307 425.093 410.409C425.502 409.361 425.666 407.87 425.476 406.644C424.923 403.087 425.396 381.755 426.851 374.093C428.601 364.881 427.466 26.3769 425.312 23.6935C423.223 21.0923 402.434 19.0919 396.565 18.1477C395.783 18.0219 392.129 17.4087 389.325 17.2015C376.258 16.2365 59.3994 10.8399 46.5012 12.6554C43.3378 13.1008 40.4808 12.5979 39.1828 12.7709C32.49 13.662 14.1022 21.6212 13.2 23.4183Z" fill="#69360E"/>
<path d="M16.3046 22.8635C18.0899 24.8497 14.1154 30.2344 14.1537 34.1176C14.1899 37.7735 15.2029 191.249 15.2029 195.765C15.2029 200.281 17.2236 383.288 16.9287 385.998C16.6337 388.707 20.6588 400.489 24.436 402.089C25.8187 402.675 358.271 403.459 366.825 403.76C375.378 404.061 411.179 407.991 411.179 407.991L421.356 401.489C421.356 401.489 419.258 214.372 420.412 197.765C421.245 185.778 421.087 24.8688 420.202 23.3635C419.317 21.8581 406.74 19.1684 393.762 17.061C359.857 11.556 -6.93186 -2.99079 16.3046 22.8635Z" fill="#D9BEA9"/>
<path opacity="0.11" d="M401.632 426.123C407.531 426.439 432.898 426.123 432.898 426.123C432.898 426.123 437.912 414.419 437.912 413.154C437.912 413.113 437.916 413.04 437.921 412.941C433.285 409.912 421.357 401.489 421.357 401.489L22.1816 384.841L3.59013 386.051C3.04296 389.496 -0.703507 413.36 0.117131 416.001C1.00198 418.848 13.6854 426.123 13.6854 426.123C13.6854 426.123 395.733 425.807 401.632 426.123Z" fill="black"/>
<path opacity="0.33" d="M411.179 407.991L27.7939 399.294L12.5802 412.539L0.0482185 415.655C0.0657984 415.793 0.0882616 415.91 0.116096 416C1.00095 418.848 13.6843 426.123 13.6843 426.123C13.6843 426.123 395.731 425.807 401.631 426.123C407.53 426.439 432.897 426.123 432.897 426.123C432.897 426.123 432.947 426.005 433.035 425.798L411.179 407.991Z" fill="black"/>
<path opacity="0.25" d="M355.055 5.93492L40.1586 0.230574C27.0689 1.99398 7.73449 11.5972 7.00469 11.5972C7.00469 11.5972 7.51182 12.5363 8.23943 13.8753L13.1051 20.775L16.3027 24.4061C16.9173 24.7311 17.4657 25.0362 17.7477 25.2162C17.9438 25.3412 23.6333 25.3329 32.3192 25.2451L393.762 17.0613L408.605 6.77003C408.605 6.77003 378.696 5.82631 355.055 5.93492Z" fill="white"/>
<path d="M427.794 33.2435C427.794 33.2435 425.406 194.854 425.207 196.204C425.008 197.554 426.967 368.868 426.501 372.871C426.035 376.875 426.307 383.018 426.307 383.018C426.307 383.018 431.166 55.8623 427.794 33.2435Z" fill="#482306"/>
<path d="M427.697 29.9741C427.697 29.9741 431.19 187.779 430.518 197.671C429.847 207.562 426.308 383.017 426.308 383.017C426.308 383.017 428.857 203.83 428.986 193.386C429.114 182.941 427.697 29.9741 427.697 29.9741Z" fill="#D9BEA9"/>
<path d="M427.647 31.2421C427.647 31.2421 424.812 195.922 424.812 196.204C424.812 196.486 426.364 381.474 426.307 381.279C426.249 381.083 427.5 56.6633 427.647 51.7926C427.794 46.9217 427.647 31.2421 427.647 31.2421Z" fill="#82410F"/>
<path d="M425.311 23.6932C421.462 22.5621 418.684 22.4442 418.208 22.2769C417.731 22.1095 397.015 16.9111 397.54 16.3729C398.065 15.8348 398.353 13.6746 398.353 13.6746C398.353 13.6746 392.923 15.4018 390.72 15.618C388.517 15.8345 40.0706 10.3951 37.8673 10.7106C35.6639 11.0259 19.8801 19.8405 18.4874 20.4293C17.0947 21.0181 13.3158 21.1954 13.1058 20.7747C12.896 20.3542 7.04218 11.6678 7.6084 12.7111C8.17461 13.7543 11.9516 22.1413 12.0566 24.2435C12.1616 26.3457 12.896 35.7009 13.0008 41.9026C13.1058 48.1042 15.8336 378.692 15.6238 381.004C15.4139 383.317 12.8838 385.446 12.8838 385.446C12.8838 385.446 15.6238 385.209 15.7286 386.47C15.8336 387.731 16.7778 396.456 19.0861 399.294C21.3944 402.132 19.5598 406.462 19.1803 406.792C18.8009 407.122 24.437 403.288 28.3192 403.288C32.2012 403.288 37.6573 403.183 33.1456 401.291C33.1456 401.291 26.6406 401.186 25.8011 400.66C24.9617 400.135 20.45 394.563 19.4008 390.254C18.3517 385.944 18.3517 383.316 18.3517 383.316C18.3517 383.316 15.7286 35.8063 15.7286 33.2837C15.7286 30.761 27.8995 30.9711 29.9978 30.8659C32.0962 30.7607 37.867 13.759 37.867 13.759C37.867 13.759 370.47 16.1501 388.936 18.1471C407.402 20.1443 418.944 23.4028 419.154 24.1386C419.364 24.8744 418.419 391.621 418.629 394.354C418.839 397.087 420.098 398.769 418.314 400.555C416.531 402.342 410.127 406.773 409.497 406.878C408.867 406.983 368.352 403.834 368.352 403.834L414.525 410.718C414.525 410.718 414.537 406.757 415.376 406.442C416.216 406.127 421.357 402.027 421.357 402.027C421.357 402.027 421.357 393.408 421.357 387.627C421.357 381.845 420.413 27.187 421.357 26.0307C422.301 24.8744 427.118 25.926 427.708 25.3103C428.298 24.6948 429.16 24.8242 425.311 23.6932Z" fill="#F4E2D4"/>
<path d="M36.0939 13.4438C36.0939 13.4438 32.3049 27.452 31.1525 27.6602C16.6733 30.2748 14.6274 29.3945 14.6274 29.3945C14.6274 29.3945 14.6013 23.6192 15.9652 23.5607C17.3288 23.502 36.0939 13.4438 36.0939 13.4438Z" fill="#D9BEA9"/>
<path opacity="0.13" d="M34.9396 216.7C28.8015 219.538 23.4206 384.368 26.4993 387.049C29.5777 389.729 348.593 400.179 356.148 400.867C363.702 401.555 406.024 407.722 405.559 403.614C405.094 399.505 371.341 389.099 362.007 384.842C352.674 380.584 34.9396 216.7 34.9396 216.7Z" fill="#F8EFE8"/>
<path opacity="0.33" d="M26.8291 414.92C28.1464 413.282 25.3451 410.859 23.8046 411.03C22.2642 411.2 16.0043 411.483 16.4785 412.846C16.9524 414.208 25.4606 416.621 26.8291 414.92Z" fill="black"/>
<path opacity="0.33" d="M28.3735 406.807C27.6747 406.978 24.8346 407.261 25.0497 408.623C25.2648 409.985 29.1248 412.399 29.7457 410.697C30.3432 409.059 29.0723 406.637 28.3735 406.807Z" fill="black"/>
<path opacity="0.33" d="M20.5119 407.126C20.2528 407.475 19.0435 408.702 19.6671 409.251C20.2907 409.801 23.0102 409.431 22.6442 408.402C22.2918 407.411 20.7707 406.777 20.5119 407.126Z" fill="black"/>
<path opacity="0.13" d="M21.5825 105.844C21.5825 105.844 19.4839 60.3127 23.1706 49.3389C26.8572 38.3651 41.2691 36.7461 46.536 32.888C51.8028 29.03 339.63 26.0289 367.148 27.0296C394.666 28.0303 419.878 34.2743 406.987 35.5105C394.095 36.7466 154.953 39.0068 89.8501 78.7215C24.7469 118.436 21.9144 115.19 21.5825 105.844Z" fill="#F8EFE8"/>
</svg>
